<svg xmlns="http://www.w3.org/2000/svg" width="14.598in" height="5in" viewBox="0 0 1051.037 360">
  <title>WEB</title>
  <path d="M346.1,190.21q.362,4.612.421,9.253a77.044,77.044,0,0,1-.348,9.228A140.629,140.629,0,0,1,343.23,226.7a165.493,165.493,0,0,1-4.934,17.257c-1.816,4.965-3.7,10.254-5.786,15.482a72.8,72.8,0,0,1-22.047,23.52c-1.76,1.212-3.571,2.36-5.416,3.439-7.408,3.856-14.365,8.03-21.322,9.421-25.045,4.175-48.7,5.566-71.827,14.741q-3.717,1.305-7.336,2.752c-3.141,1.281-6.156,2.611-9.122,3.99-8.863,4.119-17.462,8.711-25.81,13.3a35.183,35.183,0,0,1-6.469,2.43c-6.622,1.815-13.543,2.028-19.315,2.88-3.8.379-7.565.609-11.3.669-20.9.335-40.621-4.669-57-18.715a77.641,77.641,0,0,1-6.8-6.588c-6.608-14.688-12-29.337-17.835-43.7q-1.752-4.308-3.581-8.587c-19.627-29.966-33.541-66.142-14.557-100.3,1.178-3.469,2.416-6.894,3.714-10.3,5.191-13.619,11.354-26.918,16.43-40.177q2.241-4.554,4.734-8.968c13.29-23.5,31.843-43.4,54.028-56.828q4.594-2.783,9.392-5.187c21.034-12.424,45.722-15.8,69.452-12.844q4.449.553,8.845,1.4c33.958,3.909,75.37,5.4,92.559,39.123a93.125,93.125,0,0,1,4.311,9.979c4.176,9.8,7.569,20.028,10.931,30.287,1.135,3.419,2.328,6.852,3.857,10.319,7.48,23.085,28.351,39.782,33.694,63.841Q345.666,184.68,346.1,190.21Z"/>
  <g>
    <path d="M447.288,108.987h28.243v24.084h2.418c5.127-9.19,15.089-26.02,42.655-26.02,35.883,0,62.385,28.343,62.385,76.511,0,48.073-26.116,76.893-62.094,76.893-27.084,0-37.724-16.54-42.946-26.016h-1.741v78.829h-28.92Zm67.126,126.806c25.825,0,39.364-22.729,39.364-52.522,0-29.5-13.153-51.65-39.364-51.65-25.248,0-38.788,20.6-38.788,51.65C475.626,214.514,489.552,235.793,514.414,235.793Z"/>
    <path d="M597.792,183.948c0-46.232,27.375-76.9,69.258-76.9s69.252,30.665,69.252,76.9c0,45.946-27.375,76.607-69.252,76.607S597.792,229.894,597.792,183.948Zm109.3-.095c0-28.438-12.767-52.618-39.946-52.618-27.375,0-40.142,24.18-40.142,52.618,0,28.534,12.767,52.422,40.142,52.422C694.324,236.275,707.091,212.387,707.091,183.853Z"/>
    <path d="M757.6,108.987h28.242v24.084h2.418c5.127-9.19,15.09-26.02,42.656-26.02,35.883,0,62.385,28.343,62.385,76.511,0,48.073-26.116,76.893-62.1,76.893-27.083,0-37.723-16.54-42.946-26.016h-1.74v78.829H757.6Zm67.125,126.806c25.825,0,39.365-22.729,39.365-52.522,0-29.5-13.154-51.65-39.365-51.65-25.247,0-38.787,20.6-38.787,51.65C785.934,214.514,799.86,235.793,824.721,235.793Z"/>
    <path d="M999.891,149.9c-3.386-9.962-11.7-19.925-29.692-19.925-16.444,0-28.825,8.127-28.73,19.539-.1,10.058,6.963,15.571,23.312,19.439l23.6,5.418c27.275,6.286,40.624,19.248,40.624,40.237,0,26.888-24.862,45.946-60.745,45.946-33.369,0-55.231-14.8-60.067-41.11l27.957-4.254c3.481,14.6,14.6,22.052,31.915,22.052,18.962,0,31.243-8.994,31.243-20.507,0-9.285-6.673-15.667-20.989-18.862l-25.148-5.513c-27.857-6.19-40.624-20.212-40.624-41.3,0-26.306,23.794-44.009,57.359-44.009,32.11,0,50.2,15.089,56.2,38.205Z"/>
  </g>
</svg>
